<svg id="Laag_1" data-name="Laag 1" xmlns="http://www.w3.org/2000/svg" viewBox="0 0 645.47 287.31"><title>Logo</title><circle cx="143.66" cy="143.66" r="137.66" style="fill:none;stroke:#e72e4b;stroke-linecap:round;stroke-miterlimit:10;stroke-width:12px"/><line x1="131.3" y1="20.54" x2="118.64" y2="51.54" style="fill:none;stroke:#e72e4b;stroke-linecap:round;stroke-miterlimit:10;stroke-width:9px"/><line x1="110.3" y1="70.21" x2="97.64" y2="101.21" style="fill:none;stroke:#e72e4b;stroke-linecap:round;stroke-miterlimit:10;stroke-width:9px"/><line x1="88.64" y1="119.54" x2="75.97" y2="150.54" style="fill:none;stroke:#e72e4b;stroke-linecap:round;stroke-miterlimit:10;stroke-width:9px"/><line x1="66.3" y1="170.21" x2="53.64" y2="201.21" style="fill:none;stroke:#e72e4b;stroke-linecap:round;stroke-miterlimit:10;stroke-width:9px"/><circle cx="129.83" cy="213" r="3.67" transform="translate(-132.2 98.01) rotate(-67.2)" style="fill:#e72e4b;stroke:#e72e4b;stroke-miterlimit:10"/><circle cx="108.5" cy="263" r="3.67" transform="translate(-191.36 108.96) rotate(-67.2)" style="fill:#e72e4b;stroke:#e72e4b;stroke-miterlimit:10"/><circle cx="86.5" cy="313" r="3.67" transform="translate(-250.92 119.3) rotate(-67.2)" style="fill:#e72e4b;stroke:#e72e4b;stroke-miterlimit:10"/><circle cx="63.83" cy="364.67" r="3.67" transform="translate(-312.43 130.05) rotate(-67.2)" style="fill:#e72e4b;stroke:#e72e4b;stroke-miterlimit:10"/><line x1="70.3" y1="198.88" x2="57.64" y2="229.88" style="fill:none;stroke:#e72e4b;stroke-linecap:round;stroke-miterlimit:10;stroke-width:9px"/><circle cx="91.5" cy="337.67" r="3.67" transform="translate(-270.6 139.02) rotate(-67.2)" style="fill:#e72e4b;stroke:#e72e4b;stroke-miterlimit:10"/><line x1="75.14" y1="230.38" x2="67.97" y2="248.21" style="fill:none;stroke:#e72e4b;stroke-linecap:round;stroke-miterlimit:10;stroke-width:9px"/><line x1="93.64" y1="187.38" x2="80.64" y2="218.88" style="fill:none;stroke:#e72e4b;stroke-linecap:round;stroke-miterlimit:10;stroke-width:9px"/><line x1="156.14" y1="207.38" x2="151.97" y2="218.21" style="fill:none;stroke:#e72e4b;stroke-linecap:round;stroke-miterlimit:10;stroke-width:9px"/><line x1="119.97" y1="254.04" x2="110.14" y2="276.88" style="fill:none;stroke:#e72e4b;stroke-linecap:round;stroke-miterlimit:10;stroke-width:9px"/><line x1="209.3" y1="46.38" x2="196.64" y2="77.38" style="fill:none;stroke:#e72e4b;stroke-linecap:round;stroke-miterlimit:10;stroke-width:9px"/><line x1="136.97" y1="212.54" x2="124.3" y2="243.54" style="fill:none;stroke:#e72e4b;stroke-linecap:round;stroke-miterlimit:10;stroke-width:9px"/><circle cx="145.5" cy="212.83" r="3.67" transform="translate(-122.45 112.35) rotate(-67.2)" style="fill:#e72e4b;stroke:#e72e4b;stroke-miterlimit:10"/><circle cx="177.5" cy="179.5" r="3.67" transform="translate(-72.13 121.43) rotate(-67.2)" style="fill:#e72e4b;stroke:#e72e4b;stroke-miterlimit:10"/><circle cx="205.67" cy="244.33" r="3.67" transform="translate(-114.65 187.1) rotate(-67.2)" style="fill:#e72e4b;stroke:#e72e4b;stroke-miterlimit:10"/><circle cx="157.17" cy="355.33" r="3.67" transform="translate(-246.67 210.37) rotate(-67.2)" style="fill:#e72e4b;stroke:#e72e4b;stroke-miterlimit:10"/><line x1="124.55" y1="71.74" x2="83.68" y2="169.18" style="fill:none;stroke:#312783;stroke-linecap:round;stroke-miterlimit:10;stroke-width:9px"/><line x1="184.26" y1="104.41" x2="147.89" y2="191.08" style="fill:none;stroke:#312783;stroke-linecap:round;stroke-miterlimit:10;stroke-width:9px"/><line x1="140.12" y1="78.29" x2="131.66" y2="99.84" style="fill:none;stroke:#312783;stroke-linecap:round;stroke-miterlimit:10;stroke-width:9px"/><line x1="107.05" y1="154.84" x2="98.59" y2="176.39" style="fill:none;stroke:#312783;stroke-linecap:round;stroke-miterlimit:10;stroke-width:9px"/><line x1="147.27" y1="103.39" x2="138.81" y2="124.94" style="fill:none;stroke:#312783;stroke-linecap:round;stroke-miterlimit:10;stroke-width:9px"/><line x1="131.74" y1="141.68" x2="123.27" y2="163.23" style="fill:none;stroke:#312783;stroke-linecap:round;stroke-miterlimit:10;stroke-width:9px"/><line x1="120.98" y1="124.53" x2="117.7" y2="132.65" style="fill:none;stroke:#312783;stroke-linecap:round;stroke-miterlimit:10;stroke-width:9px"/><line x1="178" y1="194.83" x2="174.72" y2="202.95" style="fill:none;stroke:#312783;stroke-linecap:round;stroke-miterlimit:10;stroke-width:9px"/><line x1="164.58" y1="189.14" x2="161.3" y2="197.26" style="fill:none;stroke:#312783;stroke-linecap:round;stroke-miterlimit:10;stroke-width:9px"/><line x1="176.64" y1="34.54" x2="166.64" y2="57.54" style="fill:none;stroke:#e72e4b;stroke-linecap:round;stroke-miterlimit:10;stroke-width:9px"/><line x1="115.97" y1="177.21" x2="103.3" y2="208.21" style="fill:none;stroke:#e72e4b;stroke-linecap:round;stroke-miterlimit:10;stroke-width:9px"/><line x1="92.64" y1="227.88" x2="79.97" y2="258.88" style="fill:none;stroke:#e72e4b;stroke-linecap:round;stroke-miterlimit:10;stroke-width:9px"/><circle cx="177.5" cy="220.67" r="3.67" transform="translate(-110.08 146.64) rotate(-67.2)" style="fill:#e72e4b;stroke:#e72e4b;stroke-miterlimit:10"/><circle cx="112.83" cy="370.67" r="3.67" transform="translate(-287.96 178.89) rotate(-67.2)" style="fill:#e72e4b;stroke:#e72e4b;stroke-miterlimit:10"/><line x1="157.14" y1="37.04" x2="144.47" y2="68.04" style="fill:none;stroke:#e72e4b;stroke-linecap:round;stroke-miterlimit:10;stroke-width:9px"/><line x1="144.64" y1="26.38" x2="134.64" y2="49.38" style="fill:none;stroke:#e72e4b;stroke-linecap:round;stroke-miterlimit:10;stroke-width:9px"/><line x1="157.64" y1="78.38" x2="151.97" y2="93.21" style="fill:none;stroke:#e72e4b;stroke-linecap:round;stroke-miterlimit:10;stroke-width:9px"/><line x1="176.14" y1="79.04" x2="163.47" y2="110.04" style="fill:none;stroke:#e72e4b;stroke-linecap:round;stroke-miterlimit:10;stroke-width:9px"/><line x1="195.14" y1="35.38" x2="185.14" y2="58.38" style="fill:none;stroke:#e72e4b;stroke-linecap:round;stroke-miterlimit:10;stroke-width:9px"/><line x1="155.14" y1="128.71" x2="142.47" y2="159.71" style="fill:none;stroke:#e72e4b;stroke-linecap:round;stroke-miterlimit:10;stroke-width:9px"/><line x1="133.47" y1="178.04" x2="120.8" y2="209.04" style="fill:none;stroke:#e72e4b;stroke-linecap:round;stroke-miterlimit:10;stroke-width:9px"/><line x1="111.14" y1="228.71" x2="98.47" y2="259.71" style="fill:none;stroke:#e72e4b;stroke-linecap:round;stroke-miterlimit:10;stroke-width:9px"/><circle cx="174.67" cy="271.5" r="3.67" transform="translate(-158.67 175.16) rotate(-67.2)" style="fill:#e72e4b;stroke:#e72e4b;stroke-miterlimit:10"/><circle cx="196" cy="221.5" r="3.67" transform="translate(-99.52 164.21) rotate(-67.2)" style="fill:#e72e4b;stroke:#e72e4b;stroke-miterlimit:10"/><circle cx="153.33" cy="321.5" r="3.67" transform="translate(-217.83 186.12) rotate(-67.2)" style="fill:#e72e4b;stroke:#e72e4b;stroke-miterlimit:10"/><circle cx="131.33" cy="371.5" r="3.67" transform="translate(-277.39 196.46) rotate(-67.2)" style="fill:#e72e4b;stroke:#e72e4b;stroke-miterlimit:10"/><line x1="208.3" y1="87.04" x2="195.64" y2="118.04" style="fill:none;stroke:#e72e4b;stroke-linecap:round;stroke-miterlimit:10;stroke-width:9px"/><line x1="227.3" y1="43.38" x2="217.3" y2="66.38" style="fill:none;stroke:#e72e4b;stroke-linecap:round;stroke-miterlimit:10;stroke-width:9px"/><line x1="187.3" y1="136.71" x2="174.64" y2="167.71" style="fill:none;stroke:#e72e4b;stroke-linecap:round;stroke-miterlimit:10;stroke-width:9px"/><line x1="143.3" y1="236.71" x2="130.64" y2="267.71" style="fill:none;stroke:#e72e4b;stroke-linecap:round;stroke-miterlimit:10;stroke-width:9px"/><circle cx="206.83" cy="279.5" r="3.67" transform="translate(-146.35 209.71) rotate(-67.2)" style="fill:#e72e4b;stroke:#e72e4b;stroke-miterlimit:10"/><circle cx="228.17" cy="229.5" r="3.67" transform="translate(-87.19 198.76) rotate(-67.2)" style="fill:#e72e4b;stroke:#e72e4b;stroke-miterlimit:10"/><circle cx="185.5" cy="329.5" r="3.67" transform="translate(-205.51 220.67) rotate(-67.2)" style="fill:#e72e4b;stroke:#e72e4b;stroke-miterlimit:10"/><circle cx="163.5" cy="379.5" r="3.67" transform="translate(-265.07 231.01) rotate(-67.2)" style="fill:#e72e4b;stroke:#e72e4b;stroke-miterlimit:10"/><line x1="214.64" y1="109.54" x2="201.97" y2="140.54" style="fill:none;stroke:#e72e4b;stroke-linecap:round;stroke-miterlimit:10;stroke-width:9px"/><line x1="233.64" y1="65.88" x2="223.64" y2="88.88" style="fill:none;stroke:#e72e4b;stroke-linecap:round;stroke-miterlimit:10;stroke-width:9px"/><line x1="193.64" y1="159.21" x2="182.64" y2="184.88" style="fill:none;stroke:#e72e4b;stroke-linecap:round;stroke-miterlimit:10;stroke-width:9px"/><line x1="169.14" y1="214.38" x2="159.3" y2="239.54" style="fill:none;stroke:#e72e4b;stroke-linecap:round;stroke-miterlimit:10;stroke-width:9px"/><line x1="149.64" y1="259.21" x2="141.64" y2="280.38" style="fill:none;stroke:#e72e4b;stroke-linecap:round;stroke-miterlimit:10;stroke-width:9px"/><circle cx="213.17" cy="302" r="3.67" transform="translate(-163.21 229.33) rotate(-67.2)" style="fill:#e72e4b;stroke:#e72e4b;stroke-miterlimit:10"/><circle cx="234.5" cy="252" r="3.67" transform="translate(-104.05 218.38) rotate(-67.2)" style="fill:#e72e4b;stroke:#e72e4b;stroke-miterlimit:10"/><circle cx="169.83" cy="402" r="3.67" transform="translate(-281.93 250.62) rotate(-67.2)" style="fill:#e72e4b;stroke:#e72e4b;stroke-miterlimit:10"/><line x1="230.97" y1="104.21" x2="218.3" y2="135.21" style="fill:none;stroke:#e72e4b;stroke-linecap:round;stroke-miterlimit:10;stroke-width:9px"/><line x1="249.97" y1="60.54" x2="239.97" y2="83.54" style="fill:none;stroke:#e72e4b;stroke-linecap:round;stroke-miterlimit:10;stroke-width:9px"/><line x1="209.97" y1="153.88" x2="197.3" y2="184.88" style="fill:none;stroke:#e72e4b;stroke-linecap:round;stroke-miterlimit:10;stroke-width:9px"/><line x1="188.3" y1="203.21" x2="175.64" y2="234.21" style="fill:none;stroke:#e72e4b;stroke-linecap:round;stroke-miterlimit:10;stroke-width:9px"/><line x1="165.97" y1="253.88" x2="155.64" y2="278.88" style="fill:none;stroke:#e72e4b;stroke-linecap:round;stroke-miterlimit:10;stroke-width:9px"/><circle cx="229.5" cy="296.67" r="3.67" transform="translate(-148.29 241.12) rotate(-67.2)" style="fill:#e72e4b;stroke:#e72e4b;stroke-miterlimit:10"/><circle cx="250.83" cy="246.67" r="3.67" transform="translate(-89.14 230.17) rotate(-67.2)" style="fill:#e72e4b;stroke:#e72e4b;stroke-miterlimit:10"/><circle cx="208.17" cy="346.67" r="3.67" transform="translate(-207.45 252.08) rotate(-67.2)" style="fill:#e72e4b;stroke:#e72e4b;stroke-miterlimit:10"/><circle cx="186.17" cy="396.67" r="3.67" transform="translate(-267.01 262.42) rotate(-67.2)" style="fill:#e72e4b;stroke:#e72e4b;stroke-miterlimit:10"/><line x1="245.97" y1="99.88" x2="233.3" y2="130.88" style="fill:none;stroke:#e72e4b;stroke-linecap:round;stroke-miterlimit:10;stroke-width:9px"/><line x1="224.97" y1="149.54" x2="212.3" y2="180.54" style="fill:none;stroke:#e72e4b;stroke-linecap:round;stroke-miterlimit:10;stroke-width:9px"/><line x1="203.3" y1="198.88" x2="190.64" y2="229.88" style="fill:none;stroke:#e72e4b;stroke-linecap:round;stroke-miterlimit:10;stroke-width:9px"/><line x1="180.97" y1="249.54" x2="168.3" y2="280.54" style="fill:none;stroke:#e72e4b;stroke-linecap:round;stroke-miterlimit:10;stroke-width:9px"/><circle cx="244.5" cy="292.33" r="3.67" transform="translate(-135.11 252.29) rotate(-67.2)" style="fill:#e72e4b;stroke:#e72e4b;stroke-miterlimit:10"/><circle cx="265.83" cy="242.33" r="3.67" transform="translate(-75.95 241.34) rotate(-67.2)" style="fill:#e72e4b;stroke:#e72e4b;stroke-miterlimit:10"/><circle cx="223.17" cy="342.33" r="3.67" transform="translate(-194.27 263.25) rotate(-67.2)" style="fill:#e72e4b;stroke:#e72e4b;stroke-miterlimit:10"/><circle cx="201.17" cy="392.33" r="3.67" transform="translate(-253.83 273.59) rotate(-67.2)" style="fill:#e72e4b;stroke:#e72e4b;stroke-miterlimit:10"/><line x1="252.3" y1="112.54" x2="239.64" y2="143.54" style="fill:none;stroke:#e72e4b;stroke-linecap:round;stroke-miterlimit:10;stroke-width:9px"/><line x1="231.3" y1="162.21" x2="218.64" y2="193.21" style="fill:none;stroke:#e72e4b;stroke-linecap:round;stroke-miterlimit:10;stroke-width:9px"/><line x1="209.64" y1="211.54" x2="196.97" y2="242.54" style="fill:none;stroke:#e72e4b;stroke-linecap:round;stroke-miterlimit:10;stroke-width:9px"/><circle cx="250.83" cy="305" r="3.67" transform="translate(-142.91 265.89) rotate(-67.2)" style="fill:#e72e4b;stroke:#e72e4b;stroke-miterlimit:10"/><circle cx="272.17" cy="255" r="3.67" transform="translate(-83.75 254.93) rotate(-67.2)" style="fill:#e72e4b;stroke:#e72e4b;stroke-miterlimit:10"/><circle cx="229.5" cy="355" r="3.67" transform="translate(-202.07 276.84) rotate(-67.2)" style="fill:#e72e4b;stroke:#e72e4b;stroke-miterlimit:10"/><circle cx="207.5" cy="405" r="3.67" transform="translate(-261.63 287.18) rotate(-67.2)" style="fill:#e72e4b;stroke:#e72e4b;stroke-miterlimit:10"/><line x1="267.97" y1="105.21" x2="255.3" y2="136.21" style="fill:none;stroke:#e72e4b;stroke-linecap:round;stroke-miterlimit:10;stroke-width:9px"/><line x1="246.97" y1="154.88" x2="234.3" y2="185.88" style="fill:none;stroke:#e72e4b;stroke-linecap:round;stroke-miterlimit:10;stroke-width:9px"/><line x1="225.3" y1="204.21" x2="212.64" y2="235.21" style="fill:none;stroke:#e72e4b;stroke-linecap:round;stroke-miterlimit:10;stroke-width:9px"/><circle cx="266.5" cy="297.67" r="3.67" transform="translate(-126.55 275.84) rotate(-67.2)" style="fill:#e72e4b;stroke:#e72e4b;stroke-miterlimit:10"/><circle cx="142" cy="264" r="3.67" transform="translate(-171.76 140.45) rotate(-67.2)" style="fill:#e72e4b;stroke:#e72e4b;stroke-miterlimit:10"/><circle cx="128" cy="295" r="3.67" transform="translate(-208.92 146.53) rotate(-67.2)" style="fill:#e72e4b;stroke:#e72e4b;stroke-miterlimit:10"/><circle cx="245.17" cy="347.67" r="3.67" transform="translate(-185.71 286.8) rotate(-67.2)" style="fill:#e72e4b;stroke:#e72e4b;stroke-miterlimit:10"/><circle cx="223.17" cy="397.67" r="3.67" transform="translate(-245.28 297.14) rotate(-67.2)" style="fill:#e72e4b;stroke:#e72e4b;stroke-miterlimit:10"/><line x1="273.64" y1="118.21" x2="260.97" y2="149.21" style="fill:none;stroke:#e72e4b;stroke-linecap:round;stroke-miterlimit:10;stroke-width:9px"/><line x1="252.64" y1="167.88" x2="239.97" y2="198.88" style="fill:none;stroke:#e72e4b;stroke-linecap:round;stroke-miterlimit:10;stroke-width:9px"/><line x1="230.97" y1="217.21" x2="218.3" y2="248.21" style="fill:none;stroke:#e72e4b;stroke-linecap:round;stroke-miterlimit:10;stroke-width:9px"/><circle cx="272.17" cy="310.67" r="3.67" transform="translate(-135.07 289.03) rotate(-67.2)" style="fill:#e72e4b;stroke:#e72e4b;stroke-miterlimit:10"/><circle cx="293.5" cy="260.67" r="3.67" transform="translate(-75.91 278.07) rotate(-67.2)" style="fill:#e72e4b;stroke:#e72e4b;stroke-miterlimit:10"/><circle cx="250.83" cy="360.67" r="3.67" transform="translate(-194.22 299.98) rotate(-67.2)" style="fill:#e72e4b;stroke:#e72e4b;stroke-miterlimit:10"/><circle cx="228.83" cy="410.67" r="3.67" transform="translate(-253.79 310.32) rotate(-67.2)" style="fill:#e72e4b;stroke:#e72e4b;stroke-miterlimit:10"/><line x1="282.3" y1="124.54" x2="269.64" y2="155.54" style="fill:none;stroke:#e72e4b;stroke-linecap:round;stroke-miterlimit:10;stroke-width:9px"/><line x1="263.3" y1="174.21" x2="250.64" y2="205.21" style="fill:none;stroke:#e72e4b;stroke-linecap:round;stroke-miterlimit:10;stroke-width:9px"/><line x1="239.64" y1="223.54" x2="226.97" y2="254.54" style="fill:none;stroke:#e72e4b;stroke-linecap:round;stroke-miterlimit:10;stroke-width:9px"/><circle cx="280.83" cy="317" r="3.67" transform="translate(-135.6 300.89) rotate(-67.2)" style="fill:#e72e4b;stroke:#e72e4b;stroke-miterlimit:10"/><circle cx="259.5" cy="367" r="3.67" transform="translate(-194.76 311.85) rotate(-67.2)" style="fill:#e72e4b;stroke:#e72e4b;stroke-miterlimit:10"/><line x1="116.3" y1="25.21" x2="103.64" y2="56.21" style="fill:none;stroke:#e72e4b;stroke-linecap:round;stroke-miterlimit:10;stroke-width:9px"/><line x1="95.3" y1="74.88" x2="82.64" y2="105.88" style="fill:none;stroke:#e72e4b;stroke-linecap:round;stroke-miterlimit:10;stroke-width:9px"/><line x1="73.64" y1="124.21" x2="60.97" y2="155.21" style="fill:none;stroke:#e72e4b;stroke-linecap:round;stroke-miterlimit:10;stroke-width:9px"/><line x1="51.3" y1="174.88" x2="38.64" y2="205.88" style="fill:none;stroke:#e72e4b;stroke-linecap:round;stroke-miterlimit:10;stroke-width:9px"/><circle cx="114.83" cy="217.67" r="3.67" transform="translate(-145.69 87.04) rotate(-67.2)" style="fill:#e72e4b;stroke:#e72e4b;stroke-miterlimit:10"/><circle cx="136.17" cy="167.67" r="3.67" transform="translate(-86.53 76.08) rotate(-67.2)" style="fill:#e72e4b;stroke:#e72e4b;stroke-miterlimit:10"/><circle cx="93.5" cy="267.67" r="3.67" transform="translate(-204.85 97.99) rotate(-67.2)" style="fill:#e72e4b;stroke:#e72e4b;stroke-miterlimit:10"/><circle cx="71.5" cy="317.67" r="3.67" transform="translate(-264.41 108.33) rotate(-67.2)" style="fill:#e72e4b;stroke:#e72e4b;stroke-miterlimit:10"/><line x1="99.64" y1="32.54" x2="86.97" y2="63.54" style="fill:none;stroke:#e72e4b;stroke-linecap:round;stroke-miterlimit:10;stroke-width:9px"/><line x1="78.64" y1="82.21" x2="65.97" y2="113.21" style="fill:none;stroke:#e72e4b;stroke-linecap:round;stroke-miterlimit:10;stroke-width:9px"/><line x1="56.97" y1="131.54" x2="44.3" y2="162.54" style="fill:none;stroke:#e72e4b;stroke-linecap:round;stroke-miterlimit:10;stroke-width:9px"/><line x1="34.64" y1="182.21" x2="24.64" y2="206.88" style="fill:none;stroke:#e72e4b;stroke-linecap:round;stroke-miterlimit:10;stroke-width:9px"/><circle cx="98.17" cy="225" r="3.67" transform="translate(-162.66 76.16) rotate(-67.2)" style="fill:#e72e4b;stroke:#e72e4b;stroke-miterlimit:10"/><circle cx="119.5" cy="175" r="3.67" transform="translate(-103.5 65.21) rotate(-67.2)" style="fill:#e72e4b;stroke:#e72e4b;stroke-miterlimit:10"/><circle cx="76.83" cy="275" r="3.67" transform="translate(-221.81 87.12) rotate(-67.2)" style="fill:#e72e4b;stroke:#e72e4b;stroke-miterlimit:10"/><circle cx="54.83" cy="325" r="3.67" transform="translate(-281.38 97.46) rotate(-67.2)" style="fill:#e72e4b;stroke:#e72e4b;stroke-miterlimit:10"/><line x1="95.97" y1="15.54" x2="83.3" y2="46.54" style="fill:none;stroke:#e72e4b;stroke-linecap:round;stroke-miterlimit:10;stroke-width:9px"/><line x1="74.97" y1="65.21" x2="62.3" y2="96.21" style="fill:none;stroke:#e72e4b;stroke-linecap:round;stroke-miterlimit:10;stroke-width:9px"/><line x1="53.3" y1="114.54" x2="40.64" y2="145.54" style="fill:none;stroke:#e72e4b;stroke-linecap:round;stroke-miterlimit:10;stroke-width:9px"/><line x1="30.97" y1="165.21" x2="18.3" y2="196.21" style="fill:none;stroke:#e72e4b;stroke-linecap:round;stroke-miterlimit:10;stroke-width:9px"/><circle cx="94.5" cy="208" r="3.67" transform="translate(-149.23 62.37) rotate(-67.2)" style="fill:#e72e4b;stroke:#e72e4b;stroke-miterlimit:10"/><circle cx="73.17" cy="258" r="3.67" transform="translate(-208.39 73.33) rotate(-67.2)" style="fill:#e72e4b;stroke:#e72e4b;stroke-miterlimit:10"/><circle cx="51.17" cy="308" r="3.67" transform="translate(-267.95 83.67) rotate(-67.2)" style="fill:#e72e4b;stroke:#e72e4b;stroke-miterlimit:10"/><line x1="79.97" y1="26.21" x2="67.3" y2="57.21" style="fill:none;stroke:#e72e4b;stroke-linecap:round;stroke-miterlimit:10;stroke-width:9px"/><line x1="58.97" y1="75.88" x2="46.3" y2="106.88" style="fill:none;stroke:#e72e4b;stroke-linecap:round;stroke-miterlimit:10;stroke-width:9px"/><line x1="37.3" y1="125.21" x2="24.64" y2="156.21" style="fill:none;stroke:#e72e4b;stroke-linecap:round;stroke-miterlimit:10;stroke-width:9px"/><circle cx="78.5" cy="218.67" r="3.67" transform="translate(-168.86 54.16) rotate(-67.2)" style="fill:#e72e4b;stroke:#e72e4b;stroke-miterlimit:10"/><circle cx="99.83" cy="168.67" r="3.67" transform="translate(-109.71 43.2) rotate(-67.2)" style="fill:#e72e4b;stroke:#e72e4b;stroke-miterlimit:10"/><circle cx="57.17" cy="268.67" r="3.67" transform="translate(-228.02 65.11) rotate(-67.2)" style="fill:#e72e4b;stroke:#e72e4b;stroke-miterlimit:10"/><circle cx="35.17" cy="318.67" r="3.67" transform="translate(-287.58 75.45) rotate(-67.2)" style="fill:#e72e4b;stroke:#e72e4b;stroke-miterlimit:10"/><line x1="64.64" y1="38.21" x2="51.97" y2="69.21" style="fill:none;stroke:#e72e4b;stroke-linecap:round;stroke-miterlimit:10;stroke-width:9px"/><line x1="42.97" y1="87.54" x2="30.3" y2="118.54" style="fill:none;stroke:#e72e4b;stroke-linecap:round;stroke-miterlimit:10;stroke-width:9px"/><line x1="20.64" y1="138.21" x2="7.97" y2="169.21" style="fill:none;stroke:#e72e4b;stroke-linecap:round;stroke-miterlimit:10;stroke-width:9px"/><circle cx="84.17" cy="181" r="3.67" transform="translate(-130.67 36.31) rotate(-67.2)" style="fill:#e72e4b;stroke:#e72e4b;stroke-miterlimit:10"/><circle cx="62.83" cy="231" r="3.67" transform="translate(-189.83 47.27) rotate(-67.2)" style="fill:#e72e4b;stroke:#e72e4b;stroke-miterlimit:10"/><circle cx="40.83" cy="281" r="3.67" transform="translate(-249.39 57.61) rotate(-67.2)" style="fill:#e72e4b;stroke:#e72e4b;stroke-miterlimit:10"/><circle cx="143.54" cy="143.44" r="127.57" style="fill:none;stroke:#312783;stroke-miterlimit:10;stroke-width:9px"/><text transform="translate(301.64 149.08)" style="font-size:131.68777465820312px;fill:#30373f;font-family:New Cicle">BioLab</text><text transform="translate(305.64 225.3)" style="font-size:71.63070678710938px;fill:#30373f;font-family:New Cicle">Brussel</text></svg>